# xmcd CD database file
# Copyright (C) 1996 Ti Kan
#
# Track frame offsets:
# 	150
# 	13463
# 	25905
# 	40225
# 	52185
# 	65765
# 	81575
# 	97245
# 	111793
# 	122333
#
# Disc length: 1776 seconds
#
# Revision: 1
# Processed by: cddbd v1.4b41PL1 Copyright (c) Steve Scherf et al.
# Submitted via: DiscPlay 3.4.1
#
DISCID=9106ee0a
DTITLE=George Strait - Beyond The Blue Neon
DYEAR=1900
DGENRE=
TTITLE0=Beyond The Blue Neon
TTITLE1=Hollywood Squares
TTITLE2=Overnight Success
TTITLE3=Ace In The Hole
TTITLE4=Leavin's Been Coming (For A Long, Long Time)
TTITLE5=Baby's Gotten Good At Goodbye
TTITLE6=What's Going On In Your World
TTITLE7=Angel, Angelina
TTITLE8=Too Much Of Too Little
TTITLE9=Oh Me, Oh My Sweet Baby
EXTD=
EXTT0=
EXTT1=
EXTT2=
EXTT3=
EXTT4=
EXTT5=
EXTT6=
EXTT7=
EXTT8=
EXTT9=
PLAYORDER=
